<svg width="32" height="32" viewBox="0 0 32 32" fill="none" xmlns="http://www.w3.org/2000/svg">
<path d="M30.63 4.62C30.5158 4.52573 30.3822 4.458 30.2386 4.42168C30.0951 4.38536 29.9453 4.38137 29.8 4.41C21.24 6.17 16.92 1.52 16.74 1.32C16.6462 1.21524 16.5314 1.13145 16.403 1.07408C16.2746 1.01671 16.1356 0.987061 15.995 0.987061C15.8544 0.987061 15.7154 1.01671 15.587 1.07408C15.4586 1.13145 15.3438 1.21524 15.25 1.32C15.25 1.37 10.81 6.18 2.25001 4.41C2.10303 4.37996 1.95119 4.38338 1.80571 4.42C1.66024 4.45662 1.52486 4.52549 1.40962 4.62153C1.29438 4.71756 1.20222 4.8383 1.13997 4.97478C1.07772 5.11127 1.04697 5.26001 1.05001 5.41V13.73C1.03018 17.9066 2.51504 21.9506 5.23285 25.122C7.95067 28.2934 11.7196 30.38 15.85 31H16.15C20.2929 30.3905 24.0765 28.3057 26.8048 25.129C29.5332 21.9524 31.0229 17.8974 31 13.71V5.39C30.999 5.24229 30.9653 5.09663 30.9014 4.9635C30.8374 4.83036 30.7447 4.71305 30.63 4.62ZM29 13.71C29.0207 17.3923 27.7205 20.9601 25.3352 23.7655C22.9499 26.571 19.6378 28.4282 16 29C12.3623 28.4282 9.05012 26.571 6.66484 23.7655C4.27956 20.9601 2.97927 17.3923 3.00001 13.71V6.59C10 7.59 14.35 4.76 16 3.36C17.65 4.76 22 7.63 29 6.59V13.71Z" fill="white"/>
<path d="M25.3099 8.21002C19.6899 9.30002 16.8499 6.44002 16.7299 6.31002C16.6358 6.2113 16.5225 6.13287 16.397 6.07956C16.2714 6.02624 16.1363 5.99918 15.9999 6.00002C15.8635 5.99918 15.7284 6.02624 15.6029 6.07956C15.4773 6.13287 15.364 6.2113 15.2699 6.31002C15.1599 6.43002 12.3199 9.31002 6.68992 8.21002C6.54366 8.18169 6.39292 8.18639 6.24871 8.2238C6.1045 8.2612 5.97047 8.33035 5.85641 8.42619C5.74236 8.52204 5.65116 8.64216 5.58948 8.77777C5.5278 8.91338 5.4972 9.06106 5.49992 9.21002V14C5.50203 16.9098 6.5492 19.722 8.45071 21.9246C10.3522 24.1271 12.9816 25.5734 15.8599 26H16.1399C19.0183 25.5734 21.6476 24.1271 23.5491 21.9246C25.4506 19.722 26.4978 16.9098 26.4999 14V9.19002C26.5026 9.04106 26.472 8.89338 26.4104 8.75777C26.3487 8.62216 26.2575 8.50204 26.1434 8.40619C26.0294 8.31035 25.8953 8.2412 25.7511 8.2038C25.6069 8.1664 25.4562 8.16169 25.3099 8.19002V8.21002ZM24.4999 14C24.5024 16.405 23.6483 18.7323 22.0908 20.5647C20.5332 22.3972 18.3739 23.615 15.9999 24C13.6259 23.615 11.4667 22.3972 9.90909 20.5647C8.3515 18.7323 7.49743 16.405 7.49992 14V10.36C10.4854 10.8195 13.5326 10.1025 15.9999 8.36002C18.4677 10.1015 21.5145 10.8184 24.4999 10.36V14Z" fill="white"/>
<path d="M17 12H15V15H12V17H15V20H17V17H20V15H17V12Z" fill="white"/>
</svg>
