<svg width="32" height="32" viewBox="0 0 32 32" fill="none" xmlns="http://www.w3.org/2000/svg">
<path d="M28.65 22.2L22.21 18.49C21.9804 18.3596 21.7085 18.3254 21.4537 18.3947C21.1989 18.464 20.9819 18.6313 20.85 18.86L17.14 25.29C17.0088 25.5184 16.973 25.7894 17.0404 26.044C17.1078 26.2987 17.2729 26.5164 17.5 26.65L23.93 30.37C25.0105 30.9502 26.2743 31.087 27.4539 30.7515C28.6336 30.416 29.6363 29.6346 30.2498 28.5727C30.8633 27.5108 31.0393 26.2518 30.7407 25.0623C30.4421 23.8728 29.6923 22.8463 28.65 22.2ZM19.37 25.42L22.08 20.72L23.56 21.58L20.85 26.28L19.37 25.42ZM28.64 27.64C28.4637 27.951 28.2274 28.2238 27.9448 28.4427C27.6623 28.6616 27.3391 28.8222 26.9939 28.9153C26.6488 29.0083 26.2887 29.0318 25.9344 28.9846C25.5801 28.9374 25.2387 28.8202 24.93 28.64L22.58 27.29L25.3 22.59L27.65 23.95C28.2689 24.3097 28.7203 24.8995 28.9058 25.5909C29.0913 26.2822 28.9957 27.0189 28.64 27.64Z" fill="white"/>
<path d="M11.15 18.86C11.0181 18.6313 10.801 18.464 10.5462 18.3947C10.2915 18.3254 10.0196 18.3596 9.78999 18.49L3.34999 22.21C2.45043 22.7288 1.74755 23.5304 1.35069 24.49C0.953825 25.4497 0.885227 26.5135 1.15557 27.5162C1.4259 28.5188 2.02002 29.404 2.8455 30.0341C3.67098 30.6641 4.68154 31.0037 5.71999 31C6.54529 31.0018 7.35626 30.7844 8.06999 30.37L14.5 26.66C14.728 26.5256 14.8934 26.3062 14.96 26.05C14.9941 25.923 15.0029 25.7905 14.9857 25.6601C14.9685 25.5296 14.9258 25.4039 14.86 25.29L11.15 18.86ZM7.06999 28.64C6.60385 28.9132 6.06692 29.0413 5.52766 29.0081C4.98841 28.9749 4.47126 28.7819 4.04214 28.4536C3.61303 28.1253 3.2914 27.6767 3.11826 27.1649C2.94512 26.6531 2.92831 26.1014 3.06999 25.58C3.25865 24.8893 3.71116 24.3003 4.32999 23.94L6.69999 22.58L9.41999 27.28L7.06999 28.64ZM11.15 26.28L8.43999 21.58L9.91999 20.73L12.63 25.42L11.15 26.28Z" fill="white"/>
<path d="M17.7599 18.0001H18.2199C19.5619 17.9989 20.8857 17.6905 22.0901 17.0985C23.2944 16.5065 24.3471 15.6466 25.1677 14.5847C25.9882 13.5228 26.5547 12.2872 26.8238 10.9725C27.0928 9.65778 27.0573 8.29893 26.7199 7.00008C26.6754 6.82658 26.5851 6.66823 26.4584 6.54158C26.3318 6.41492 26.1734 6.32461 25.9999 6.28008C24.3079 5.84349 22.5236 5.92713 20.8799 6.52008C20.0981 4.27037 18.5516 2.36639 16.5099 1.14008C16.3579 1.05231 16.1855 1.0061 16.0099 1.0061C15.8344 1.0061 15.6619 1.05231 15.5099 1.14008C13.4682 2.36639 11.9217 4.27037 11.1399 6.52008C9.4901 5.92302 7.69819 5.83936 5.99992 6.28008C5.82642 6.32461 5.66807 6.41492 5.54141 6.54158C5.41476 6.66823 5.32445 6.82658 5.27992 7.00008C4.94252 8.29893 4.90699 9.65778 5.17605 10.9725C5.44512 12.2872 6.01163 13.5228 6.83216 14.5847C7.6527 15.6466 8.70547 16.5065 9.90978 17.0985C11.1141 17.6905 12.438 17.9989 13.7799 18.0001H14.2399C14.4825 18.1979 14.7362 18.3815 14.9999 18.5501V22.0001H16.9999V18.5201C17.2628 18.3612 17.5166 18.1876 17.7599 18.0001ZM24.9099 8.12008C25.197 9.83332 24.8156 11.5914 23.8443 13.0316C22.873 14.4718 21.3859 15.4843 19.6899 15.8601C20.868 14.1328 21.4987 12.0909 21.4999 10.0001C21.4951 9.49125 21.455 8.98336 21.3799 8.48008C22.5009 8.03826 23.7195 7.90363 24.9099 8.09008V8.12008ZM7.08992 8.12008C8.28032 7.93363 9.49892 8.06826 10.6199 8.51008C10.5462 9.00345 10.5061 9.50127 10.4999 10.0001C10.5071 12.0806 11.1375 14.1113 12.3099 15.8301C10.6139 15.4543 9.12687 14.4418 8.15557 13.0016C7.18426 11.5614 6.80281 9.80332 7.08992 8.09008V8.12008ZM12.4999 10.0001C12.4987 8.66824 12.8157 7.35538 13.4245 6.17083C14.0333 4.98628 14.9163 3.96433 15.9999 3.19008C16.9989 3.90004 17.8298 4.82071 18.4338 5.88704C19.0379 6.95338 19.4005 8.13937 19.4958 9.36121C19.5912 10.583 19.4171 11.8109 18.9858 12.9581C18.5546 14.1052 17.8766 15.1437 16.9999 16.0001V10.0001H14.9999V16.0001C14.2042 15.2172 13.573 14.2831 13.1437 13.2527C12.7144 12.2222 12.4955 11.1164 12.4999 10.0001Z" fill="white"/>
</svg>
